<?xml version="1.0" encoding="UTF-8"?>
<svg  viewBox="0 0 60 60" version="1.1" xmlns="http://www.w3.org/2000/svg" xmlns:xlink="http://www.w3.org/1999/xlink">
    <!-- Generator: Sketch 50.2 (55047) - http://www.bohemiancoding.com/sketch -->
    <title>movement</title>
    <desc>Created with Sketch.</desc>
    <defs></defs>
    <g id="Home" stroke="none" stroke-width="1" fill="none" fill-rule="evenodd">
        <g id="Desktop" transform="translate(-1313.000000, -1350.000000)" fill="#000000" fill-rule="nonzero">
            <g id="Group-3" transform="translate(467.000000, 1180.000000)">
                <path d="M898.62637,204.112922 C898.155285,204.401036 898.007243,205.017116 898.294301,205.488201 C904.08564,214.966408 905.608961,222.928209 902.27022,226.267067 C898.32255,230.214737 888.36728,227.256827 877.726657,219.793774 C880.934351,217.360399 884.180375,214.533534 887.358297,211.355612 C902.879854,195.834055 910.051511,178.687084 903.684063,172.319636 C899.561157,168.198605 890.788113,169.625927 880.217701,176.144465 C879.746616,176.433516 879.600566,177.049713 879.890672,177.520799 C880.180779,177.990947 880.797913,178.136996 881.267006,177.84689 C890.850237,171.938571 898.896081,170.362152 902.269869,173.734885 C907.658107,179.123122 900.181339,195.70301 885.944103,209.941301 C882.698782,213.186621 879.332028,216.079009 876.003719,218.549306 C872.675294,216.078891 869.308422,213.186504 866.062984,209.941301 C851.82563,195.70301 844.348863,179.123122 849.737101,173.734885 C855.124401,168.346647 871.705226,175.822359 885.943517,190.060651 C887.04088,191.158014 889.8191,193.98605 891.724775,195.999797 L888.006376,195.999797 C887.454296,195.999797 887.006184,196.447908 887.006184,196.999989 C887.006184,197.55207 887.454296,198.000181 888.006376,198.000181 L894.007764,198.000181 C894.011983,198.000181 894.016086,197.999595 894.020306,197.999595 C894.040115,197.999361 894.059924,197.998071 894.079733,197.996548 C894.093213,197.99561 894.106927,197.994907 894.12029,197.9935 C894.138575,197.99139 894.156743,197.988225 894.174912,197.985178 C894.189329,197.982716 894.203864,197.980724 894.218047,197.977676 C894.234808,197.974042 894.251218,197.969354 894.267746,197.9649 C894.282749,197.960797 894.297987,197.957163 894.312756,197.952475 C894.328463,197.947435 894.343818,197.941222 894.35929,197.935479 C894.374294,197.929852 894.389414,197.924578 894.404066,197.918248 C894.418835,197.911801 894.433253,197.9043 894.447905,197.89715 C894.462674,197.889882 894.47756,197.882967 894.49186,197.874996 C894.505574,197.867377 894.518819,197.85882 894.532182,197.850498 C894.546716,197.841473 894.561485,197.832682 894.575551,197.822953 C894.588093,197.814279 894.600166,197.804667 894.612357,197.795407 C894.626422,197.784624 894.640605,197.773957 894.654085,197.762587 C894.657836,197.759422 894.661821,197.756844 894.665572,197.753562 C894.673777,197.746294 894.680927,197.738324 894.688898,197.730939 C894.701674,197.718983 894.714333,197.707027 894.726524,197.694486 C894.737659,197.682999 894.748208,197.671043 894.75864,197.659204 C894.769776,197.646545 894.780677,197.633886 894.791109,197.62064 C894.800955,197.608098 894.810332,197.595439 894.819592,197.582546 C894.829555,197.568714 894.839284,197.554649 894.848544,197.540231 C894.856515,197.527806 894.864134,197.515147 894.871518,197.502488 C894.880895,197.48643 894.889804,197.470254 894.898243,197.453727 C894.904104,197.44224 894.909613,197.430635 894.915005,197.419031 C894.923561,197.400511 894.931649,197.38164 894.939151,197.362534 C894.943136,197.352336 894.94677,197.342138 894.950403,197.331941 C894.957788,197.311077 894.964469,197.289978 894.970447,197.268528 C894.973026,197.259268 894.97537,197.250008 894.977597,197.240631 C894.983106,197.218594 894.987912,197.196324 894.991897,197.173584 C894.993538,197.163972 894.994945,197.154243 894.996352,197.144632 C894.999516,197.122596 895.00233,197.100442 895.003971,197.078054 C895.004791,197.066919 895.005143,197.0559 895.005612,197.044765 C895.006315,197.029996 895.007839,197.015344 895.007839,197.000458 L895.007839,190.999071 C895.007839,190.44699 894.559727,189.998879 894.007647,189.998879 C893.455566,189.998879 893.007454,190.44699 893.007454,190.999071 L893.007454,194.446821 C891.085604,192.422173 888.427763,189.716743 887.357828,188.646808 C871.837209,173.124783 854.690238,165.953125 848.32279,172.319636 C841.955341,178.687084 849.126999,195.834055 864.648555,211.355612 C867.826595,214.533651 871.072501,217.36075 874.280196,219.794008 C863.640041,227.256475 853.685006,230.213917 849.736632,226.267067 C846.50104,223.031475 847.810093,215.464101 852.998245,206.52344 L852.998245,209.002881 C852.998245,209.554961 853.446357,210.003073 853.998437,210.003073 C854.550518,210.003073 854.99863,209.554961 854.99863,209.002881 L854.99863,203.001494 C854.99863,202.998798 854.998278,202.996336 854.998278,202.99364 C854.998161,202.979106 854.996871,202.964688 854.996051,202.950271 C854.995113,202.93093 854.994527,202.91159 854.992417,202.892601 C854.9923,202.891429 854.992065,202.89014 854.991831,202.888967 C854.977296,202.75968 854.938498,202.637894 854.879422,202.528298 C854.879188,202.527829 854.879071,202.52736 854.878836,202.527009 C854.871334,202.51306 854.862543,202.499815 854.854338,202.486335 C854.784478,202.369824 854.690121,202.266206 854.572554,202.18357 C854.566811,202.179468 854.561419,202.175013 854.555558,202.171145 C854.552511,202.169035 854.549815,202.166691 854.546767,202.164699 C854.530357,202.153915 854.513244,202.144889 854.496482,202.135278 C854.487808,202.130237 854.479486,202.124846 854.470578,202.120157 C854.449831,202.109022 854.428732,202.099293 854.407516,202.089798 C854.399077,202.086048 854.390755,202.081828 854.382198,202.078194 C854.359341,202.0687 854.33625,202.060612 854.313041,202.052876 C854.305422,202.050414 854.298038,202.047484 854.290419,202.04514 C854.265218,202.037403 854.239899,202.031191 854.214464,202.025565 C854.208134,202.024158 854.201922,202.0224 854.195592,202.021111 C854.167812,202.015602 854.139915,202.011499 854.111901,202.008334 C854.107095,202.007748 854.102524,202.006928 854.097718,202.006459 C854.066891,202.003411 854.036063,202.001887 854.005236,202.00177 C854.003009,202.00177 854.000782,202.001419 853.998437,202.001419 L853.995038,202.001419 C853.989998,202.001419 853.985075,202.001301 853.980035,202.001419 L847.99705,202.001419 C847.444969,202.001419 846.996858,202.44953 846.996858,203.001611 C846.996858,203.553691 847.444969,204.001803 847.99705,204.001803 L852.176454,204.001803 C845.664245,214.545959 844.170111,223.530223 848.322321,227.681495 C849.894637,229.252874 852.122183,230 854.820815,230 C860.41453,230 868.029493,226.789727 876.00325,221.066138 C883.977242,226.79043 891.592205,230.000703 897.186155,230 C899.883731,230 902.11327,229.252874 903.684649,227.681495 C907.77157,223.594574 906.395236,214.908504 900.001766,204.445108 C899.713653,203.973906 899.099566,203.825864 898.62637,204.112922 Z" id="movement"></path>
            </g>
        </g>
    </g>
</svg>